<svg width="200" height="200" viewBox="0 0 200 200" xmlns="http://www.w3.org/2000/svg">
    <!-- Main circular calendar base -->
    <circle cx="100" cy="100" r="90" fill="#7C3AED" opacity="0.1"></circle>
    
    <!-- Dynamic swoosh elements -->
    <path d="M40 100
         A60 60 0 0 1 160 100
         Q130 150 100 150
         Q70 150 40 100" fill="#7C3AED"></path>
    
    <!-- Calendar top rings -->
    <path d="M70 40 
         A5 5 0 0 1 70 50
         A5 5 0 0 1 70 40" fill="#7C3AED"></path>
    
    <path d="M130 40
         A5 5 0 0 1 130 50
         A5 5 0 0 1 130 40" fill="#7C3AED"></path>
    
    <!-- Star burst / event indicator -->
    <path d="M100 70
         L105 85 L120 85
         L110 95 L115 110
         L100 100 L85 110
         L90 95 L80 85
         L95 85 Z" fill="white"></path>
  </svg>
